<?xml version="1.0" standalone="no"?>
<!DOCTYPE svg PUBLIC "-//W3C//DTD SVG 20010904//EN"
 "http://www.w3.org/TR/2001/REC-SVG-20010904/DTD/svg10.dtd">
<svg version="1.0" xmlns="http://www.w3.org/2000/svg"
 width="1335.000000pt" height="1337.000000pt" viewBox="0 0 1335.000000 1337.000000"
 preserveAspectRatio="xMidYMid meet">

<g transform="translate(0.000000,1337.000000) scale(0.100000,-0.100000)"
fill="#000000" stroke="none">
<path d="M3298 10192 l-108 -3 0 -929 0 -930 505 0 505 0 0 930 0 930 -47 0
c-464 4 -769 4 -855 2z"/>
<path d="M6798 10192 l-128 -3 0 -1714 0 -1715 -420 0 -420 0 0 -435 c0 -380
2 -435 15 -435 8 0 15 -7 15 -15 0 -13 108 -15 915 -15 l915 0 0 2165 0 2165
-32 0 c-272 3 -762 4 -860 2z"/>
<path d="M9358 10192 l-128 -3 0 -929 0 -930 510 0 510 0 0 930 0 930 -32 0
c-272 3 -762 4 -860 2z"/>
<path d="M4200 4410 l0 -410 410 0 410 0 0 -405 0 -405 1685 0 1685 0 0 405 0
405 420 0 420 0 0 410 0 410 -420 0 -420 0 0 -410 0 -410 -1685 0 -1685 0 0
410 0 410 -410 0 -410 0 0 -410z"/>
<path d="M0 10 c0 -7 2232 -10 6675 -10 4443 0 6675 3 6675 10 0 7 -2232 10
-6675 10 -4443 0 -6675 -3 -6675 -10z"/>
</g>
</svg>
